<?xml version="1.0" standalone="no"?>
<!DOCTYPE svg PUBLIC "-//W3C//DTD SVG 20010904//EN"
 "http://www.w3.org/TR/2001/REC-SVG-20010904/DTD/svg10.dtd">
<svg version="1.0" xmlns="http://www.w3.org/2000/svg"
 width="816.000000pt" height="816.000000pt" viewBox="0 0 816.000000 816.000000"
 preserveAspectRatio="xMidYMid meet">
<metadata>
Created by potrace 1.14, written by Peter Selinger 2001-2017
</metadata>
<g transform="translate(0.000000,816.000000) scale(0.100000,-0.100000)"
fill="#000000" stroke="none">
<path d="M3920 7584 c-597 -34 -1157 -206 -1655 -509 -457 -278 -864 -682
-1156 -1147 -759 -1212 -688 -2803 177 -3953 204 -271 488 -549 771 -753 275
-197 657 -388 973 -486 369 -113 679 -160 1065 -159 807 2 1545 263 2185 772
125 99 426 400 528 527 615 769 881 1741 741 2709 -93 644 -367 1254 -787
1755 -98 117 -305 322 -432 429 -525 442 -1181 723 -1855 795 -145 16 -442 26
-555 20z m-2670 -3141 l1 -428 194 198 195 198 95 -3 96 -3 -202 -208 -202
-208 73 -67 c121 -110 360 -403 360 -441 0 -7 -32 -11 -92 -11 l-93 0 -73 100
c-83 111 -209 245 -292 310 l-55 43 -5 -224 -5 -224 -82 -3 -83 -3 0 685 0
686 23 5 c30 6 119 22 135 24 9 1 12 -91 12 -426z m1249 -24 c200 -46 326
-212 338 -444 9 -173 -38 -306 -143 -405 -132 -125 -340 -154 -508 -71 -229
113 -316 436 -188 699 51 105 163 194 279 221 52 12 169 13 222 0z m1038 0
c43 -6 82 -15 87 -19 9 -9 -12 -140 -23 -140 -3 0 -22 5 -41 10 -41 12 -210
13 -260 2 l-35 -8 -5 -394 -5 -395 -82 -3 -83 -3 0 450 0 450 50 15 c140 42
270 53 397 35z m802 -8 c83 -26 141 -62 192 -119 173 -192 166 -536 -14 -717
-161 -161 -442 -165 -615 -10 -188 169 -199 535 -20 730 107 117 297 166 457
116z m1125 -11 c67 -26 126 -75 162 -136 45 -77 54 -152 54 -486 l0 -308 -85
0 -85 0 0 290 c0 307 -6 368 -46 436 -38 66 -75 79 -229 79 -71 0 -138 -3
-147 -7 -17 -7 -18 -36 -18 -403 l0 -396 -82 3 -83 3 -3 452 c-2 424 -1 452
15 457 26 7 181 35 228 40 97 10 259 -2 319 -24z m955 15 c71 -19 137 -61 172
-110 53 -74 59 -126 59 -486 l0 -327 -27 -6 c-122 -25 -404 -35 -483 -17 -147
33 -222 113 -236 249 -13 122 40 219 149 271 103 50 249 62 406 34 l33 -6 -7
64 c-13 115 -49 169 -134 197 -47 16 -154 15 -247 -3 -43 -8 -78 -14 -80 -12
-7 8 -21 123 -16 129 4 4 41 13 82 21 99 20 260 21 329 2z m656 -739 c93 -39
83 -188 -15 -217 -85 -26 -160 25 -160 108 0 55 12 79 53 103 38 24 75 25 122
6z"/>
<path d="M2302 4271 c-66 -23 -114 -69 -150 -141 -23 -48 -27 -70 -31 -167 -4
-130 13 -200 63 -267 100 -132 323 -128 414 8 50 75 65 140 60 265 -3 90 -8
114 -32 163 -33 70 -93 123 -160 143 -64 19 -99 18 -164 -4z"/>
<path d="M4138 4280 c-52 -13 -111 -54 -142 -98 -47 -68 -60 -118 -60 -237 -1
-133 17 -192 77 -261 55 -62 104 -84 192 -84 88 0 137 22 190 82 52 59 75 123
82 228 11 166 -47 294 -159 351 -44 23 -129 31 -180 19z"/>
<path d="M6222 3900 c-95 -20 -147 -73 -146 -148 1 -68 26 -110 82 -135 40
-19 65 -22 172 -22 69 0 133 3 143 7 15 7 17 23 17 142 0 125 -2 136 -20 146
-27 14 -195 21 -248 10z"/>
</g>
</svg>
